<svg width="922" height="450" viewBox="0 0 922 450" fill="none" xmlns="http://www.w3.org/2000/svg">
<g opacity="0.02">
<path d="M31.995 219.062C14.585 219.062 0.424988 209.136 0.424988 196.931C0.424988 184.726 14.585 174.799 31.995 174.799C49.405 174.799 63.565 184.726 63.565 196.931C63.565 209.136 49.405 219.062 31.995 219.062ZM31.995 176.657C16.045 176.657 3.07499 185.749 3.07499 196.931C3.07499 208.112 16.045 217.205 31.995 217.205C47.945 217.205 60.915 208.112 60.915 196.931C60.915 185.749 47.945 176.657 31.995 176.657Z" fill="#BCBEC0"/>
<path d="M462 74.0435C249.028 74.0435 75.7595 247.312 75.7595 460.284C75.7595 673.256 249.028 846.524 462 846.524C674.972 846.524 848.241 673.256 848.241 460.284C848.241 247.312 674.972 74.0435 462 74.0435ZM780.462 545.506L672.48 581.721L695.24 693.357L583.604 670.598L547.388 778.579L462 703.159L376.612 778.579L340.397 670.598L228.761 693.357L251.52 581.721L143.539 545.506L218.959 460.118L143.539 374.73L251.52 338.514L228.761 226.878L340.397 249.638L376.612 141.656L462 217.077L547.388 141.656L583.604 249.638L695.24 226.878L672.48 338.514L780.462 374.73L705.041 460.118L780.462 545.506Z" fill="white"/>
<path d="M462 0.284912C208.327 0.284912 2 206.612 2 460.285C2 713.958 208.327 920.285 462 920.285C715.673 920.285 922 713.958 922 460.285C922 206.612 715.673 0.284912 462 0.284912ZM462 889.386C225.438 889.386 32.8993 696.847 32.8993 460.285C32.8993 223.723 225.438 31.1841 462 31.1841C698.562 31.1841 891.101 223.723 891.101 460.285C891.101 696.847 698.562 889.386 462 889.386Z" fill="white"/>
</g>
</svg>
