<svg width="20" height="21" viewBox="0 0 20 21" fill="none" xmlns="http://www.w3.org/2000/svg">
<path d="M10 20.5C4.48527 20.5 0 16.0147 0 10.5C0 4.98527 4.48527 0.5 10 0.5C15.5147 0.5 20 4.98527 20 10.5C20 16.0147 15.5147 20.5 10 20.5ZM10 1.3394C4.94774 1.3394 0.839405 5.44774 0.839405 10.5C0.839405 15.5523 4.94774 19.6606 10 19.6606C15.0523 19.6606 19.1606 15.5523 19.1606 10.5C19.1606 5.44774 15.0523 1.3394 10 1.3394Z" fill="#BCBEC0"/>
<path d="M10 3.1355C5.93921 3.1355 2.63544 6.43927 2.63544 10.5001C2.63544 14.5609 5.93921 17.8647 10 17.8647C14.0608 17.8647 17.3646 14.5609 17.3646 10.5001C17.3646 6.43927 14.0608 3.1355 10 3.1355ZM16.0722 12.125L14.0133 12.8156L14.4473 14.9442L12.3187 14.5102L11.6282 16.5691L10 15.1311L8.3719 16.5691L7.68137 14.5102L5.55276 14.9442L5.98672 12.8156L3.9278 12.125L5.36588 10.4969L3.9278 8.86879L5.98672 8.17826L5.55276 6.04966L7.68137 6.48361L8.3719 4.4247L10 5.86277L11.6282 4.4247L12.3187 6.48361L14.4473 6.04966L14.0133 8.17826L16.0722 8.86879L14.6342 10.4969L16.0722 12.125Z" fill="white"/>
<path d="M9.99999 1.729C5.16312 1.729 1.229 5.66312 1.229 10.5C1.229 15.3369 5.16312 19.271 9.99999 19.271C14.8369 19.271 18.771 15.3369 18.771 10.5C18.771 5.66312 14.8369 1.729 9.99999 1.729ZM9.99999 18.6818C5.48938 18.6818 1.81817 15.0106 1.81817 10.5C1.81817 5.98938 5.48938 2.31817 9.99999 2.31817C14.5106 2.31817 18.1818 5.98938 18.1818 10.5C18.1818 15.0106 14.5106 18.6818 9.99999 18.6818Z" fill="white"/>
</svg>
